<svg width="108" height="36" viewBox="0 0 108 36" fill="none" xmlns="http://www.w3.org/2000/svg">
<path opacity="0.3" d="M1.9158 3.00725C3.24001 2.65579 5.04874 2.6924 6.43431 2.86274C6.86733 2.9152 6.69476 3.3584 6.99318 3.41402C7.57963 3.52212 8.10192 3.26282 8.68079 3.40544C8.87802 3.45431 8.70372 4.14543 8.90852 4.18144C10.0178 4.3754 11.0137 4.1137 12.1344 4.16192C14.4825 4.2675 16.8148 4.31111 19.2085 4.37963C20.4147 4.41601 21.6009 4.4551 22.9279 4.54743C23.5869 4.59663 24.254 4.65143 25.0863 4.77771C25.5401 4.85192 25.9443 4.91114 26.6864 5.13213C26.8546 5.18465 27.0819 5.26023 27.3402 5.36827C27.4728 5.42411 27.5881 5.47568 27.7593 5.56184C27.9383 5.65253 28.1305 5.76058 28.3373 5.89773C28.6811 6.13203 29.4037 6.63623 29.9839 7.65207C30.6488 8.7442 30.7723 10.3969 30.4253 11.4439C30.1361 12.2984 29.8147 13.1203 29.4715 13.9166C28.6764 15.7779 27.1425 17.6164 26.5579 19.409C26.4902 19.6194 27.0769 19.7618 27.1023 19.8205C27.4832 20.7326 26.5111 20.0116 26.1837 20.3186C24.9115 21.483 24.0074 23.2179 24.0138 24.1116C24.0403 24.3487 24.8857 24.3882 24.7667 24.4081C24.7344 24.462 24.6606 24.5373 24.5312 24.6371C24.478 24.6787 23.8978 24.3801 23.7947 24.5624C23.5534 25.0039 23.5588 25.6073 23.4969 25.7837C23.4906 25.801 23.4846 25.8173 23.479 25.8333C23.4206 25.9933 23.4106 25.9674 23.3951 25.8991C23.3703 25.8198 23.3985 25.6766 23.1839 25.2195C22.9676 24.7542 22.4232 24.378 22.1959 24.34C22.5341 24.5962 22.9036 24.8448 23.2911 24.8512C23.4121 24.8496 23.4346 24.1931 23.6212 24.1271C23.8094 24.0653 24.1923 24.1797 24.3236 24.3368C24.4548 24.4977 24.3687 24.9969 24.3893 25.1142C24.6208 26.1125 25.2147 24.7243 25.2375 24.6788C26.3677 23.9813 27.8607 24.116 29.643 23.1566C30.2494 22.8329 30.8929 22.4205 31.6797 22.0072C32.0038 21.7936 32.4956 21.39 32.9987 21.0153C34.1068 20.1902 35.3254 19.4585 36.358 18.2596C36.4675 18.1327 35.7807 17.7644 35.9114 17.6101C37.301 15.9672 38.7754 14.3095 40.6311 12.865C40.8191 12.7191 41.1386 13.3722 41.3569 13.2517C41.9958 12.8938 42.8997 12.4963 43.4846 11.9037C44.1189 11.2569 44.4091 10.3985 43.685 9.01055C44.5134 8.31241 45.582 7.50033 46.6755 7.35869C47.3773 7.26992 47.3801 8.19357 47.7515 7.50427C47.8375 7.34963 47.2795 6.98342 47.4402 6.78815C48.126 5.96094 49.1647 5.47838 49.8172 4.65135C49.9499 4.48138 49.59 4.04072 49.5824 3.9233C49.5653 3.5314 49.7926 3.41466 50.0841 3.41306C50.5209 3.40265 51.0687 3.6549 51.188 3.65004C52.7356 3.5636 53.4511 2.82351 54.646 2.25556C54.9228 2.12668 54.2652 1.59899 54.5239 1.44936C55.8961 0.677156 57.5454 0.0953 59.3767 0.0978701C59.7825 0.104499 59.5351 0.805462 59.7267 0.843628C60.5412 1.02593 60.6207 -0.219548 61.5518 0.0393181C61.743 0.0971174 61.62 0.649818 61.6527 0.711416C62.0947 1.67688 62.6571 0.394935 62.8403 0.394794C63.1153 0.379444 63.3867 0.419454 63.601 0.483854C63.704 0.514743 63.8013 0.553517 63.8385 0.580905C63.8553 0.594294 63.8597 0.604689 63.8098 0.604804C63.7499 0.608043 63.6622 0.579631 63.2651 0.58738C63.5238 0.602585 63.8219 0.643523 64.1609 0.753165C64.3299 0.808154 64.5084 0.88113 64.6892 0.977859C64.9087 1.09193 65.1558 1.25778 65.3677 1.45631C66.3032 2.35776 66.3325 3.31651 66.2875 3.84507C66.2269 4.31547 66.109 4.54466 65.9905 4.78612C65.8828 4.97331 65.7801 5.1032 65.6733 5.23839C65.2677 5.70938 64.9376 5.98494 64.7372 6.42707C64.6715 6.57257 65.4593 6.65553 65.2297 7.05143C63.7052 9.57591 61.7537 11.4455 59.6356 13.013C59.3079 13.2524 59.1013 12.6906 59.036 12.6662C58.0079 12.2946 58.8472 13.3979 58.8001 13.5277C58.3945 14.5359 56.91 14.4764 57.6478 16.0765C55.2331 18.1364 53.3272 20.7236 51.14 22.7522L49.9556 18.7061C49.5799 18.6077 49.4935 18.6404 49.4379 18.6423C49.3887 18.6508 49.3933 18.6612 49.4103 18.6688C49.445 18.6846 49.5345 18.6935 49.6389 18.6975C49.8389 18.7077 50.0985 18.7035 50.3541 18.703C50.8796 18.6986 51.4453 18.6993 52.0246 18.7327C52.0812 18.7337 52.1749 19.4046 52.288 19.4035C53.615 19.4024 53.0898 18.4686 53.5031 17.0048C53.6116 16.6354 54.691 17.9042 54.7845 17.9921C55.1099 18.3234 55.2126 19.3384 55.3037 19.3934C56.0593 19.8119 54.9399 16.7089 55.6835 16.4613C55.7082 16.4589 55.8033 17.067 55.8839 17.1038C56.1353 17.2199 56.2529 16.9263 56.5123 17.0597C57.095 17.3739 57.7714 18.8372 58.1397 17.7263C58.1863 17.5823 57.4518 15.8571 58.144 15.7129C58.4234 15.6564 59.5797 15.2215 59.9534 15.2187C60.3188 15.2191 60.2945 15.8663 60.3262 15.8828C61.4771 16.3241 61.2509 16.7533 62.087 17.7101C62.9251 18.6611 61.8708 16.0595 61.9453 15.7013C62.018 15.3446 62.8956 15.731 63.1277 15.8909C63.3636 16.0497 63.2934 16.4813 63.4786 16.5528C64.7102 17.0114 63.4256 15.0939 63.5852 14.5643C63.96 13.3111 65.2338 15.0629 65.9692 15.0142C66.1691 15.0005 65.8603 14.6085 66.0069 14.5084C66.0943 14.4499 66.1825 14.4106 66.2711 14.3833C66.2754 14.3814 66.2889 14.3774 66.2932 14.3755C66.7922 14.2316 67.2887 14.4763 67.7465 13.7837C67.837 13.65 68.0159 12.2658 68.7015 13.0003C68.7985 13.1068 68.8135 13.6497 69.1242 13.6656C69.5917 13.6889 70.3672 13.5426 70.7513 13.2286C71.0364 12.996 70.3877 12.315 70.8828 12.4265C71.1032 12.4766 70.9265 13.0644 71.3271 13.1191C71.7262 13.1741 72.5903 12.8588 72.9171 12.7314C73.2428 12.6036 72.8559 12.0502 72.8688 11.9998C72.9518 11.7082 73.4922 11.1993 73.5499 11.1812C75.9275 10.3608 78.1191 10.2747 80.848 9.84873C82.0406 9.6668 82.6533 10.7556 82.0671 11.81C81.782 12.2399 81.5224 12.689 81.3002 13.1674C81.2026 13.3752 81.8623 13.6085 81.8534 13.6439C81.6825 14.4572 80.4686 12.973 79.6643 13.113C80.8814 13.7808 80.4981 13.9206 80.3357 14.4672C80.2584 14.7312 80.7899 14.8934 80.8237 14.943C81.3068 15.7081 80.269 15.3819 80.049 15.3274C79.2393 15.128 79.8832 15.8642 79.3403 15.7336C78.8008 15.605 78.3558 14.8468 78.0849 15.299C78.4273 15.6873 79.7342 16.0428 79.7002 16.4935C79.574 18.1951 77.2176 20.0457 76.4845 21.0191C75.7528 21.9905 75.623 22.3708 75.0968 22.8744C74.1459 23.7839 75.2094 23.8975 75.1631 24.8024C75.1155 25.7091 73.313 24.1272 72.821 23.9543C72.3303 23.7797 72.7094 24.161 72.3985 24.131C72.0878 24.1006 71.9538 23.6622 71.6917 23.8836C71.4294 24.1053 71.7229 25.3429 72.1127 25.7232C72.9386 26.5284 74.1553 26.8139 73.3443 27.3271C73.297 27.3562 72.8548 26.8894 72.7005 27.0176C71.9411 27.6644 71.3199 28.425 70.6751 29.1632L69.4622 28.0831C69.9665 27.7976 70.4761 27.5222 71.013 27.2946C71.2123 27.2111 71.4995 27.868 71.6204 27.8255C72.8809 27.3849 71.8002 26.7542 71.5297 25.3101C72.4863 26.755 73.4438 27.3414 74.1969 26.7524C74.65 26.3988 74.1021 25.8718 74.0608 25.2248C74.0479 25.03 74.6887 25.1804 74.5249 24.8575C73.9912 23.8006 72.882 23.0265 73.9745 22.8145C74.0236 22.8067 74.3121 23.3882 74.4528 23.3249C75.3643 22.9182 74.6978 21.8992 75.4217 21.1327C75.9891 20.5317 77.5875 20.2003 78.3904 19.7123C79.5867 21.2403 79.9968 20.3436 79.4403 19.0756C79.9469 18.7408 80.4099 18.2739 80.982 18.0534C81.1785 17.977 81.426 18.4984 81.4837 18.53C82.3821 19.0309 81.7748 17.85 81.8449 17.7287C82.6403 16.4579 84.1566 16.5087 84.6093 14.9126C84.6251 14.8556 83.8442 13.7543 84.7406 14.2976C84.8012 14.336 84.8358 15.0935 85.3615 14.734C85.8874 14.3745 87.2739 14.1912 87.5728 13.1526C87.6457 12.9019 87.3841 11.7102 88.2563 12.1075C88.3739 12.1621 88.5659 12.5035 88.7653 12.6195C88.9699 12.7372 89.0333 12.6985 89.057 12.6147C89.5621 12.1738 90.1863 12.5412 90.1447 13.2103C90.2356 13.3709 90.5963 13.5467 89.7915 13.6778C88.6073 13.8708 87.676 14.4344 88.3764 15.4029C88.3966 15.4335 89.4482 15.7566 89.4018 16.0329C89.3267 16.474 89.0363 17.0806 88.9942 17.545C88.9745 17.7673 89.6563 17.6959 89.6644 17.7357C89.88 19.2678 89.1732 20.2671 88.7459 21.8387C88.6663 22.1267 89.4864 23.0653 88.7075 23.5566C87.8546 24.0964 84.6489 23.1096 85.2772 24.6243C85.528 25.235 89.6035 26.4059 87.342 27.2162C87.3434 27.2251 87.3447 27.234 87.346 27.2429C87.2526 27.894 87.9219 28.2046 88.4143 27.7684C89.5129 26.0017 91.6177 25.5062 92.554 23.5593C92.5966 23.4717 92.0009 22.4292 92.1671 22.2925C92.4155 22.0912 92.9181 22.3646 93.1075 22.2335C93.9105 21.6941 94.2199 20.7546 94.935 20.1726C95.2056 19.9507 95.5062 20.4425 95.8291 20.1779C96.1514 19.9132 95.84 19.1851 96.4952 19.0551C96.9917 18.9588 98.3462 19.7618 98.877 19.4995C97.8603 18.4027 98.1623 18.1571 98.3889 17.3953C98.4319 17.2484 97.9698 16.97 97.9716 16.881C97.9711 16.5107 98.4398 16.6597 98.4136 16.2811C98.4078 16.1897 98.0573 15.8183 98.0327 15.7227C97.81 14.8956 99.0916 15.2606 99.3136 15.3252C100.16 15.5679 99.8513 14.944 100.304 14.925C100.757 14.9065 100.647 15.5283 101.06 15.3851C101.916 15.0878 102.625 14.2971 103.247 13.7362C103.492 13.5102 102.857 13.1743 102.881 13.1305C103.262 12.5286 104.267 12.5711 103.607 11.3244C106.377 13.534 103.673 10.7905 104.873 10.6175C104.968 10.605 106.186 11.7379 106.138 12.1204C106.09 12.5026 105.405 12.4397 105.367 13.0005C105.358 13.1327 106.025 14.6462 106.035 14.7673C106.109 15.7148 104.335 13.9784 104.218 13.9018C102.942 13.0865 103.602 14.7731 103.551 14.9817C103.319 15.9367 102.57 16.1694 102.331 16.9211C102.172 17.4105 103.262 18.617 102.971 18.8262C102.003 19.5227 100.139 18.1669 100.691 20.3576C100.808 20.8257 102.206 21.9471 100.623 21.5269C100.523 21.5003 99.1816 21.0141 99.4741 21.8521C99.5112 21.9576 99.8696 22.3311 99.8557 22.4045C99.7552 22.8891 99.2741 22.7782 99.0895 23.2274C98.9049 23.6765 98.7223 24.2577 98.2347 24.4803C97.9414 24.615 96.9923 24.1875 96.7236 24.1175C95.9555 23.9101 96.4054 25.0224 95.6519 24.6029C94.8939 24.1818 94.3905 22.9243 93.5322 23.0038C94.4426 23.9942 95.354 25.0327 96.2587 26.0391C95.1544 27.0273 93.7999 27.7186 92.7658 28.7874C92.6385 28.9209 93.274 29.314 93.1504 29.4705C92.6623 30.0843 91.8622 30.2384 91.3644 30.8602C87.5534 34.2361 82.3734 31.8326 83.0963 26.793C83.0947 26.7352 83.0902 26.6766 83.0826 26.617C82.9922 25.9348 82.3081 25.1248 82.1899 24.409C83.7654 24.1461 83.3551 23.059 83.5743 22.3241C83.6505 22.0666 84.0574 22.1274 84.2105 21.9547C84.7783 21.3023 83.3908 21.4893 83.1984 21.2736C82.3778 20.3487 85.4466 20.6018 85.4744 19.6166C85.4769 19.5645 83.9121 18.759 83.8197 18.6611C83.2157 18.0372 84.3973 18.6296 84.5546 18.2957C84.8419 17.6863 85.2782 17.2878 84.8788 16.4948C84.7601 16.2633 83.798 15.6364 84.6292 15.2992C84.7381 15.2548 85.2742 15.3425 85.3105 15.3013C85.9224 14.5513 84.2298 14.3507 83.7046 13.8295C83.2094 13.3379 84.2889 12.7874 84.709 12.6349L92.47 16.8845C92.4456 16.8729 92.424 16.8621 92.4055 16.8522C91.9556 16.614 91.983 16.4948 92.1013 16.4233L85.2961 12.697C85.2676 12.8151 85.1637 12.9571 85.2027 12.971C85.8743 13.2068 86.0367 13.0374 86.111 12.7833L91.5897 15.7832C91.4781 15.8434 91.367 15.9317 91.2486 15.9904C90.1602 14.7211 89.7875 15.1475 90.8741 16.1835C90.9935 16.2961 91.1385 15.9807 91.2486 15.9904C91.999 17.4895 91.6516 18.036 90.1665 17.2617C89.4707 16.8985 89.1819 16.0576 88.6216 16.8976C88.3669 17.2782 89.217 18.0716 89.1119 18.5572C88.8711 19.6659 87.3074 19.5418 86.7041 20.2406C86.4851 20.4942 87.129 20.7858 86.9929 20.9761C86.633 21.4826 85.9264 21.4425 85.6089 22.0062C85.5806 22.0579 86.096 22.4899 85.9555 22.613C84.8985 23.5559 83.6727 23.9951 82.5119 24.908C81.9511 25.3494 81.1817 26.4299 80.5587 26.8343C79.4813 27.5383 77.6516 27.7735 76.9421 28.6387C76.4777 29.2009 77.0117 29.6182 77.0533 30.1601C77.1361 31.2089 75.346 30.6426 75.0853 30.5418C75.0769 30.5382 75.4597 30.0333 74.9923 29.9735C74.4031 29.5415 75.0888 30.5351 75.0853 30.5418C74.9157 30.4776 73.8638 31.1268 73.7522 31.3774C73.6918 31.5138 74.1397 31.9556 74.1009 32.0175C73.88 32.3637 73.6449 32.6924 73.3951 33.0033C68.3894 36.9178 61.9085 31.1769 65.3339 25.8246C65.7612 24.6131 66.3943 23.5254 67.2564 22.5667C67.2827 22.5486 67.8519 22.9564 67.9062 22.9091C68.6803 22.2569 68.2823 21.2807 68.273 20.3379C68.2639 19.3953 68.7419 18.9511 70.0085 19.1883C70.1981 18.5999 71.1037 18.1518 71.6389 17.9028C72.1741 17.6537 71.0571 16.8741 71.0574 16.823C71.0473 15.2151 72.1237 14.9621 72.9733 13.8316C73.3791 13.2953 73.9161 12.064 74.1744 11.3701C74.3766 10.8206 74.8299 10.6967 74.937 10.1408C74.9518 10.0658 74.3999 9.80596 74.3917 9.77511C74.0896 8.89116 75.1951 9.91622 75.4839 9.9532C76.5332 10.0888 77.112 10.1291 77.1285 9.24923C77.1307 9.14785 76.7463 8.70638 76.3695 8.24862L81.5196 16.5342C81.7598 17.0715 81.8127 17.6273 81.7782 17.6995C81.6345 17.893 81.5321 17.1314 81.2878 17.3828C81.2657 17.4042 81.3837 17.8599 81.1866 17.8903C80.2069 18.0575 78.8696 18.1864 77.7138 18.6083C77.5536 18.6648 77.9906 19.3096 77.7628 19.4032C76.7037 19.8388 75.4849 20.217 74.2912 20.2519C73.9967 20.2582 73.9953 19.7058 73.8876 19.5782C73.2291 18.8082 73.164 20.2745 73.0892 20.3276C71.7173 21.3319 70.256 21.1813 68.7782 21.6466L68.8843 21.6093C68.4488 21.7547 68.029 21.9481 67.6012 22.2444C67.5034 22.3165 67.1297 24.0073 66.3257 22.9599C66.2705 22.8908 65.4541 21.8172 65.4151 22.764C65.4121 22.8234 65.8724 23.3623 65.4344 23.4464C64.994 23.5314 64.4707 24.1855 63.6588 23.6999C63.3965 23.5492 62.5539 22.4859 62.3431 23.6418C62.3352 23.7204 62.246 26.1982 61.4276 24.7928C61.294 24.5611 60.7906 22.95 60.4271 23.9891C60.3566 24.1905 60.7062 24.4689 60.4501 24.8047C60.0642 25.3192 59.2488 25.1177 58.8589 26.0395C58.7937 26.2015 58.6821 27.4454 58.0293 26.7437C57.9275 26.6337 57.8652 26.0614 57.646 26.0665C56.6058 26.0868 55.7106 26.7662 54.5729 26.6949C54.1756 26.6683 54.097 25.7429 53.6569 25.615C53.2063 25.4907 52.3723 25.4732 52.0024 25.9861C51.6218 26.4995 52.5123 27.7933 51.7009 28.0833C51.405 28.1799 51.1007 28.2689 50.623 28.3518C50.4993 28.3726 50.3778 28.3911 50.2293 28.4088C50.0632 28.4278 49.883 28.4439 49.6788 28.4538C49.1932 28.4422 48.7445 28.5866 47.0366 28.1243C41.5765 26.0496 39.5651 20.6151 43.6031 16.3947C45.0485 14.5094 46.8917 13.452 48.3798 11.9691C48.6371 11.7144 48.0504 11.5869 48.4019 11.1865C49.7045 9.70228 51.5753 6.91064 53.4805 6.4063C55.0159 5.99416 54.4241 7.69393 55.3644 7.16406C55.8139 6.90966 54.8806 5.40564 54.9113 5.28772C55.2284 4.08512 56.2952 3.97188 56.695 3.09511C56.7744 2.91668 56.1225 2.63966 56.1929 2.496C56.4272 2.00309 56.9849 1.75892 57.1119 1.46318C57.1535 1.35067 56.709 1.07466 56.7649 1.06056C56.7924 1.05792 56.81 1.08357 56.8074 1.17548C56.8117 1.25698 56.7733 1.43362 56.7125 1.79665C56.6951 1.94141 56.6158 2.29738 56.5787 2.74574C56.5587 2.9853 56.5463 3.21524 56.5523 3.59664C56.5587 4.0423 56.6033 4.59521 56.7735 5.25601C56.9755 6.42111 58.391 8.75956 60.1677 9.56056C61.6587 10.2928 62.6299 10.2543 63.3189 10.2125C62.9056 10.2018 62.6024 10.1583 62.364 10.1148C62.1008 10.052 62.4934 10.0621 63.3175 9.95331C62.9503 9.80986 62.6467 9.62239 63.3152 9.54048C62.3991 9.49423 61.8076 9.28547 61.6067 9.23346C61.3827 9.16935 61.3638 9.15066 61.3445 9.12962C61.331 9.10986 61.3467 9.0934 61.3615 9.07456C61.3948 9.03794 61.4317 8.99388 61.4391 8.96267C61.4596 8.90006 61.3697 8.90035 61.2811 9.16121C61.2114 9.32127 61.4223 10.4937 61.1062 9.7133C61.0357 9.5529 60.7989 8.13225 60.7789 9.41022C60.7487 9.62719 60.7974 11.3499 60.1411 10.4514C59.9761 10.2101 59.3172 9.20702 59.1869 9.46276C59.1722 9.50101 59.5263 10.0473 59.3915 10.1728C58.9175 10.6038 58.2639 10.8541 57.7378 11.377C57.5967 11.5188 58.1649 11.9611 57.9546 12.1489C57.5327 12.5261 56.9403 12.8217 56.3262 13.0788C56.0801 13.1836 55.8418 13.2746 55.6186 13.3538C55.3217 13.459 55.1902 12.8853 55.1387 12.8478C54.2935 12.243 54.8588 13.4499 54.81 13.577C54.4873 14.3609 53.7041 14.1727 53.3187 14.6839C53.2141 14.8223 53.6973 15.2384 53.7061 15.3028C53.7875 15.937 53.2763 14.9046 53.0308 14.9441C52.3374 15.0567 51.8748 15.5374 51.5097 16.0108C51.3761 16.1857 52.0598 16.5302 51.9383 16.678C51.5763 17.1318 51.1754 17.59 50.6881 18.0709C50.2031 18.5543 49.6426 19.0469 49.0275 19.4853C48.7863 19.6564 48.4701 19.1615 48.3336 19.126C47.3851 18.8705 47.935 20.1182 47.9325 20.3031C47.931 21.1357 47.3865 21.0172 47.0861 21.5201C45.6055 23.9946 42.9771 26.5747 40.2528 28.6334C39.018 29.5467 37.7541 30.4027 35.7858 31.1846C34.6795 31.405 32.6443 32.5574 29.7156 33.6672C29.4239 33.7723 29.9576 34.3802 29.6988 34.4815C26.3038 35.8917 21.3724 35.3754 17.9726 33.9084C17.6984 33.799 17.7883 34.5271 17.3939 34.4724C17.3197 34.4457 17.2366 34.4114 17.1438 34.3676C15.6326 33.7847 13.161 31.4757 12.5174 29.0901C11.8227 26.7772 12.1388 25.4775 12.273 24.8612C12.2861 24.8121 12.3014 24.7761 12.3186 24.7485C12.5185 24.4338 12.9758 25.0595 13.1166 24.5754C13.4172 23.5691 13.6673 22.7943 13.6996 22.364C13.7487 22.0445 13.8046 21.7367 13.8512 21.4752C13.9658 20.8663 13.0204 21.5726 13.2307 20.7998C14.6943 16.3364 15.8015 14.6358 17.694 12.6167C17.8226 12.4903 19.2212 12.9584 19.1139 12.5086C18.7533 12.3183 18.3152 12.1255 17.9225 11.9384C18.4144 10.5946 18.9131 9.37804 19.3077 8.26134C18.8355 9.6724 19.0523 12.0405 19.9984 13.4876C20.8102 14.8175 21.699 15.3788 22.0919 15.6344C22.3287 15.7818 22.5344 15.888 22.7092 15.9695C22.8506 16.0349 22.9737 16.0847 23.0811 16.1245C23.3025 16.206 23.433 16.2394 23.5284 16.2625C23.9008 16.3427 23.8315 16.292 23.7499 16.2706C23.5515 16.2132 23.0925 16.1534 22.6396 16.1139C21.6927 16.0328 20.6044 16.0043 19.4969 16.0322C19.336 16.0366 19.6504 16.7993 19.3389 16.8121C17.5836 16.8865 15.8232 17.2291 13.8817 16.6134C13.6899 16.5535 13.6622 15.1843 13.1342 15.4361C13.0476 15.4809 12.2079 15.7363 12.0303 16.0501C12.0052 16.0973 12.2121 16.7193 11.9477 16.7614C10.3956 16.9965 8.74097 17.009 7.12809 16.7797C6.87234 16.741 7.07002 16.0384 6.88684 16.005C5.57087 15.7753 4.22554 16.4353 2.93487 15.9538C2.0615 15.6301 2.24862 14.4291 1.68557 13.3276C1.60684 13.1721 1.09139 13.2024 0.990833 12.537C0.738112 10.8637 0.787309 8.99573 0.488539 7.21534C0.425541 6.83164 -0.22847 7.3241 0.0834365 6.34609C0.106031 6.28041 0.576905 5.91566 0.665271 5.58596C0.727399 5.35787 0.498467 4.69489 0.64339 4.3958C0.788239 4.09699 1.04209 4.64604 1.29352 4.28607C1.5497 3.92153 1.34082 3.16141 1.9158 3.00725ZM74.0397 16.7758C74.8365 16.7335 72.8434 15.4079 73.0661 16.1316C73.0793 16.1681 74 16.7788 74.0397 16.7758ZM92.56 26.407C91.398 26.057 92.1727 27.4627 93.0411 27.7607C93.9089 28.0581 92.9128 26.5125 92.56 26.407ZM96.5223 21.5614C95.4413 21.4427 97.7039 23.9736 97.7729 22.9597C97.7777 22.9015 96.5853 21.5681 96.5223 21.5614ZM3.67989 12.7827C3.67071 12.7517 3.30356 12.7595 3.29781 12.7918C3.18456 13.568 3.91811 13.552 3.67989 12.7827ZM100.403 16.6992C99.928 16.518 99.8385 17.3357 100.429 17.5612C100.904 17.7425 100.994 16.9243 100.403 16.6992ZM66.3839 16.1062C66.3648 16.0752 66.1046 16.1349 66.1781 16.3227C66.4149 16.9274 66.7006 16.6295 66.3839 16.1062ZM107.956 9.43854C106.748 10.4147 104.134 9.03475 105.572 8.09993C105.832 7.93061 105.713 9.20074 106.168 9.11535C107.001 8.95766 106.127 7.35856 107.303 7.54002C107.517 7.57423 108.029 9.38737 107.957 9.44327C107.956 9.44169 107.956 9.44012 107.956 9.43854ZM76.6166 18.0753C76.6483 18.0843 76.8687 17.7884 76.8468 17.7643C76.3082 17.1928 75.8639 17.7887 76.6166 18.0753ZM51.2815 19.6203C51.2444 19.5633 50.4374 19.7021 50.4318 19.7632C50.2783 21.082 51.9858 20.7905 51.2815 19.6203ZM78.4342 19.7436C78.2705 18.8961 78.5892 18.5261 79.4383 19.076C79.095 19.2852 78.7767 19.53 78.4342 19.7436Z" fill="#F9DF6E"/>
</svg>
